%TF.GenerationSoftware,KiCad,Pcbnew,(6.0.0)*%
%TF.CreationDate,2022-02-27T19:02:29-06:00*%
%TF.ProjectId,Squeezecheap,53717565-657a-4656-9368-6561702e6b69,rev?*%
%TF.SameCoordinates,Original*%
%TF.FileFunction,Legend,Top*%
%TF.FilePolarity,Positive*%
%FSLAX46Y46*%
G04 Gerber Fmt 4.6, Leading zero omitted, Abs format (unit mm)*
G04 Created by KiCad (PCBNEW (6.0.0)) date 2022-02-27 19:02:29*
%MOMM*%
%LPD*%
G01*
G04 APERTURE LIST*
%ADD10C,0.150000*%
%ADD11C,0.120000*%
G04 APERTURE END LIST*
D10*
%TO.C,J2*%
X100631666Y-81367380D02*
X100631666Y-82081666D01*
X100584047Y-82224523D01*
X100488809Y-82319761D01*
X100345952Y-82367380D01*
X100250714Y-82367380D01*
X101060238Y-81462619D02*
X101107857Y-81415000D01*
X101203095Y-81367380D01*
X101441190Y-81367380D01*
X101536428Y-81415000D01*
X101584047Y-81462619D01*
X101631666Y-81557857D01*
X101631666Y-81653095D01*
X101584047Y-81795952D01*
X101012619Y-82367380D01*
X101631666Y-82367380D01*
X106897380Y-85423095D02*
X106897380Y-85899285D01*
X107373571Y-85946904D01*
X107325952Y-85899285D01*
X107278333Y-85804047D01*
X107278333Y-85565952D01*
X107325952Y-85470714D01*
X107373571Y-85423095D01*
X107468809Y-85375476D01*
X107706904Y-85375476D01*
X107802142Y-85423095D01*
X107849761Y-85470714D01*
X107897380Y-85565952D01*
X107897380Y-85804047D01*
X107849761Y-85899285D01*
X107802142Y-85946904D01*
X107230714Y-84518333D02*
X107897380Y-84518333D01*
X106849761Y-84756428D02*
X107564047Y-84994523D01*
X107564047Y-84375476D01*
X107516428Y-83994523D02*
X107516428Y-83232619D01*
X106897380Y-82565952D02*
X106897380Y-82470714D01*
X106945000Y-82375476D01*
X106992619Y-82327857D01*
X107087857Y-82280238D01*
X107278333Y-82232619D01*
X107516428Y-82232619D01*
X107706904Y-82280238D01*
X107802142Y-82327857D01*
X107849761Y-82375476D01*
X107897380Y-82470714D01*
X107897380Y-82565952D01*
X107849761Y-82661190D01*
X107802142Y-82708809D01*
X107706904Y-82756428D01*
X107516428Y-82804047D01*
X107278333Y-82804047D01*
X107087857Y-82756428D01*
X106992619Y-82708809D01*
X106945000Y-82661190D01*
X106897380Y-82565952D01*
X106897380Y-81613571D02*
X106897380Y-81518333D01*
X106945000Y-81423095D01*
X106992619Y-81375476D01*
X107087857Y-81327857D01*
X107278333Y-81280238D01*
X107516428Y-81280238D01*
X107706904Y-81327857D01*
X107802142Y-81375476D01*
X107849761Y-81423095D01*
X107897380Y-81518333D01*
X107897380Y-81613571D01*
X107849761Y-81708809D01*
X107802142Y-81756428D01*
X107706904Y-81804047D01*
X107516428Y-81851666D01*
X107278333Y-81851666D01*
X107087857Y-81804047D01*
X106992619Y-81756428D01*
X106945000Y-81708809D01*
X106897380Y-81613571D01*
X107897380Y-80327857D02*
X107897380Y-80899285D01*
X107897380Y-80613571D02*
X106897380Y-80613571D01*
X107040238Y-80708809D01*
X107135476Y-80804047D01*
X107183095Y-80899285D01*
X106897380Y-79994523D02*
X106897380Y-79327857D01*
X107897380Y-79756428D01*
X107230714Y-78518333D02*
X107897380Y-78518333D01*
X106849761Y-78756428D02*
X107564047Y-78994523D01*
X107564047Y-78375476D01*
%TO.C,SW1*%
X98764761Y-84791333D02*
X98812380Y-84648476D01*
X98812380Y-84410380D01*
X98764761Y-84315142D01*
X98717142Y-84267523D01*
X98621904Y-84219904D01*
X98526666Y-84219904D01*
X98431428Y-84267523D01*
X98383809Y-84315142D01*
X98336190Y-84410380D01*
X98288571Y-84600857D01*
X98240952Y-84696095D01*
X98193333Y-84743714D01*
X98098095Y-84791333D01*
X98002857Y-84791333D01*
X97907619Y-84743714D01*
X97860000Y-84696095D01*
X97812380Y-84600857D01*
X97812380Y-84362761D01*
X97860000Y-84219904D01*
X97812380Y-83886571D02*
X98812380Y-83648476D01*
X98098095Y-83458000D01*
X98812380Y-83267523D01*
X97812380Y-83029428D01*
X98812380Y-82124666D02*
X98812380Y-82696095D01*
X98812380Y-82410380D02*
X97812380Y-82410380D01*
X97955238Y-82505619D01*
X98050476Y-82600857D01*
X98098095Y-82696095D01*
%TO.C,R7*%
X91892380Y-83351666D02*
X91416190Y-83685000D01*
X91892380Y-83923095D02*
X90892380Y-83923095D01*
X90892380Y-83542142D01*
X90940000Y-83446904D01*
X90987619Y-83399285D01*
X91082857Y-83351666D01*
X91225714Y-83351666D01*
X91320952Y-83399285D01*
X91368571Y-83446904D01*
X91416190Y-83542142D01*
X91416190Y-83923095D01*
X90892380Y-83018333D02*
X90892380Y-82351666D01*
X91892380Y-82780238D01*
%TO.C,D1*%
X80541904Y-86177380D02*
X80541904Y-85177380D01*
X80780000Y-85177380D01*
X80922857Y-85225000D01*
X81018095Y-85320238D01*
X81065714Y-85415476D01*
X81113333Y-85605952D01*
X81113333Y-85748809D01*
X81065714Y-85939285D01*
X81018095Y-86034523D01*
X80922857Y-86129761D01*
X80780000Y-86177380D01*
X80541904Y-86177380D01*
X82065714Y-86177380D02*
X81494285Y-86177380D01*
X81780000Y-86177380D02*
X81780000Y-85177380D01*
X81684761Y-85320238D01*
X81589523Y-85415476D01*
X81494285Y-85463095D01*
%TO.C,D4*%
X88161904Y-79192380D02*
X88161904Y-78192380D01*
X88400000Y-78192380D01*
X88542857Y-78240000D01*
X88638095Y-78335238D01*
X88685714Y-78430476D01*
X88733333Y-78620952D01*
X88733333Y-78763809D01*
X88685714Y-78954285D01*
X88638095Y-79049523D01*
X88542857Y-79144761D01*
X88400000Y-79192380D01*
X88161904Y-79192380D01*
X89590476Y-78525714D02*
X89590476Y-79192380D01*
X89352380Y-78144761D02*
X89114285Y-78859047D01*
X89733333Y-78859047D01*
X91884523Y-80097380D02*
X91408333Y-80097380D01*
X91360714Y-80573571D01*
X91408333Y-80525952D01*
X91503571Y-80478333D01*
X91741666Y-80478333D01*
X91836904Y-80525952D01*
X91884523Y-80573571D01*
X91932142Y-80668809D01*
X91932142Y-80906904D01*
X91884523Y-81002142D01*
X91836904Y-81049761D01*
X91741666Y-81097380D01*
X91503571Y-81097380D01*
X91408333Y-81049761D01*
X91360714Y-81002142D01*
X92217857Y-80097380D02*
X92551190Y-81097380D01*
X92884523Y-80097380D01*
%TO.C,D2*%
X84351904Y-85542380D02*
X84351904Y-84542380D01*
X84590000Y-84542380D01*
X84732857Y-84590000D01*
X84828095Y-84685238D01*
X84875714Y-84780476D01*
X84923333Y-84970952D01*
X84923333Y-85113809D01*
X84875714Y-85304285D01*
X84828095Y-85399523D01*
X84732857Y-85494761D01*
X84590000Y-85542380D01*
X84351904Y-85542380D01*
X85304285Y-84637619D02*
X85351904Y-84590000D01*
X85447142Y-84542380D01*
X85685238Y-84542380D01*
X85780476Y-84590000D01*
X85828095Y-84637619D01*
X85875714Y-84732857D01*
X85875714Y-84828095D01*
X85828095Y-84970952D01*
X85256666Y-85542380D01*
X85875714Y-85542380D01*
%TO.C,C6*%
X82383333Y-39092142D02*
X82335714Y-39139761D01*
X82192857Y-39187380D01*
X82097619Y-39187380D01*
X81954761Y-39139761D01*
X81859523Y-39044523D01*
X81811904Y-38949285D01*
X81764285Y-38758809D01*
X81764285Y-38615952D01*
X81811904Y-38425476D01*
X81859523Y-38330238D01*
X81954761Y-38235000D01*
X82097619Y-38187380D01*
X82192857Y-38187380D01*
X82335714Y-38235000D01*
X82383333Y-38282619D01*
X83240476Y-38187380D02*
X83050000Y-38187380D01*
X82954761Y-38235000D01*
X82907142Y-38282619D01*
X82811904Y-38425476D01*
X82764285Y-38615952D01*
X82764285Y-38996904D01*
X82811904Y-39092142D01*
X82859523Y-39139761D01*
X82954761Y-39187380D01*
X83145238Y-39187380D01*
X83240476Y-39139761D01*
X83288095Y-39092142D01*
X83335714Y-38996904D01*
X83335714Y-38758809D01*
X83288095Y-38663571D01*
X83240476Y-38615952D01*
X83145238Y-38568333D01*
X82954761Y-38568333D01*
X82859523Y-38615952D01*
X82811904Y-38663571D01*
X82764285Y-38758809D01*
%TO.C,R3*%
X105862380Y-73191666D02*
X105386190Y-73525000D01*
X105862380Y-73763095D02*
X104862380Y-73763095D01*
X104862380Y-73382142D01*
X104910000Y-73286904D01*
X104957619Y-73239285D01*
X105052857Y-73191666D01*
X105195714Y-73191666D01*
X105290952Y-73239285D01*
X105338571Y-73286904D01*
X105386190Y-73382142D01*
X105386190Y-73763095D01*
X104862380Y-72858333D02*
X104862380Y-72239285D01*
X105243333Y-72572619D01*
X105243333Y-72429761D01*
X105290952Y-72334523D01*
X105338571Y-72286904D01*
X105433809Y-72239285D01*
X105671904Y-72239285D01*
X105767142Y-72286904D01*
X105814761Y-72334523D01*
X105862380Y-72429761D01*
X105862380Y-72715476D01*
X105814761Y-72810714D01*
X105767142Y-72858333D01*
%TO.C,R1*%
X86828333Y-76652380D02*
X86495000Y-76176190D01*
X86256904Y-76652380D02*
X86256904Y-75652380D01*
X86637857Y-75652380D01*
X86733095Y-75700000D01*
X86780714Y-75747619D01*
X86828333Y-75842857D01*
X86828333Y-75985714D01*
X86780714Y-76080952D01*
X86733095Y-76128571D01*
X86637857Y-76176190D01*
X86256904Y-76176190D01*
X87780714Y-76652380D02*
X87209285Y-76652380D01*
X87495000Y-76652380D02*
X87495000Y-75652380D01*
X87399761Y-75795238D01*
X87304523Y-75890476D01*
X87209285Y-75938095D01*
%TO.C,C4*%
X107037142Y-71286666D02*
X107084761Y-71334285D01*
X107132380Y-71477142D01*
X107132380Y-71572380D01*
X107084761Y-71715238D01*
X106989523Y-71810476D01*
X106894285Y-71858095D01*
X106703809Y-71905714D01*
X106560952Y-71905714D01*
X106370476Y-71858095D01*
X106275238Y-71810476D01*
X106180000Y-71715238D01*
X106132380Y-71572380D01*
X106132380Y-71477142D01*
X106180000Y-71334285D01*
X106227619Y-71286666D01*
X106465714Y-70429523D02*
X107132380Y-70429523D01*
X106084761Y-70667619D02*
X106799047Y-70905714D01*
X106799047Y-70286666D01*
%TO.C,U1*%
X94923095Y-50582380D02*
X94923095Y-51391904D01*
X94970714Y-51487142D01*
X95018333Y-51534761D01*
X95113571Y-51582380D01*
X95304047Y-51582380D01*
X95399285Y-51534761D01*
X95446904Y-51487142D01*
X95494523Y-51391904D01*
X95494523Y-50582380D01*
X96494523Y-51582380D02*
X95923095Y-51582380D01*
X96208809Y-51582380D02*
X96208809Y-50582380D01*
X96113571Y-50725238D01*
X96018333Y-50820476D01*
X95923095Y-50868095D01*
%TO.C,J3*%
X108259761Y-37117380D02*
X108259761Y-37926904D01*
X108307380Y-38022142D01*
X108355000Y-38069761D01*
X108450238Y-38117380D01*
X108640714Y-38117380D01*
X108735952Y-38069761D01*
X108783571Y-38022142D01*
X108831190Y-37926904D01*
X108831190Y-37117380D01*
X109259761Y-37831666D02*
X109735952Y-37831666D01*
X109164523Y-38117380D02*
X109497857Y-37117380D01*
X109831190Y-38117380D01*
X110735952Y-38117380D02*
X110402619Y-37641190D01*
X110164523Y-38117380D02*
X110164523Y-37117380D01*
X110545476Y-37117380D01*
X110640714Y-37165000D01*
X110688333Y-37212619D01*
X110735952Y-37307857D01*
X110735952Y-37450714D01*
X110688333Y-37545952D01*
X110640714Y-37593571D01*
X110545476Y-37641190D01*
X110164523Y-37641190D01*
X111021666Y-37117380D02*
X111593095Y-37117380D01*
X111307380Y-38117380D02*
X111307380Y-37117380D01*
%TO.C,R5*%
X100147380Y-76366666D02*
X99671190Y-76700000D01*
X100147380Y-76938095D02*
X99147380Y-76938095D01*
X99147380Y-76557142D01*
X99195000Y-76461904D01*
X99242619Y-76414285D01*
X99337857Y-76366666D01*
X99480714Y-76366666D01*
X99575952Y-76414285D01*
X99623571Y-76461904D01*
X99671190Y-76557142D01*
X99671190Y-76938095D01*
X99147380Y-75461904D02*
X99147380Y-75938095D01*
X99623571Y-75985714D01*
X99575952Y-75938095D01*
X99528333Y-75842857D01*
X99528333Y-75604761D01*
X99575952Y-75509523D01*
X99623571Y-75461904D01*
X99718809Y-75414285D01*
X99956904Y-75414285D01*
X100052142Y-75461904D01*
X100099761Y-75509523D01*
X100147380Y-75604761D01*
X100147380Y-75842857D01*
X100099761Y-75938095D01*
X100052142Y-75985714D01*
%TO.C,C5*%
X96353333Y-68937142D02*
X96305714Y-68984761D01*
X96162857Y-69032380D01*
X96067619Y-69032380D01*
X95924761Y-68984761D01*
X95829523Y-68889523D01*
X95781904Y-68794285D01*
X95734285Y-68603809D01*
X95734285Y-68460952D01*
X95781904Y-68270476D01*
X95829523Y-68175238D01*
X95924761Y-68080000D01*
X96067619Y-68032380D01*
X96162857Y-68032380D01*
X96305714Y-68080000D01*
X96353333Y-68127619D01*
X97258095Y-68032380D02*
X96781904Y-68032380D01*
X96734285Y-68508571D01*
X96781904Y-68460952D01*
X96877142Y-68413333D01*
X97115238Y-68413333D01*
X97210476Y-68460952D01*
X97258095Y-68508571D01*
X97305714Y-68603809D01*
X97305714Y-68841904D01*
X97258095Y-68937142D01*
X97210476Y-68984761D01*
X97115238Y-69032380D01*
X96877142Y-69032380D01*
X96781904Y-68984761D01*
X96734285Y-68937142D01*
%TO.C,C3*%
X81404642Y-76366666D02*
X81452261Y-76414285D01*
X81499880Y-76557142D01*
X81499880Y-76652380D01*
X81452261Y-76795238D01*
X81357023Y-76890476D01*
X81261785Y-76938095D01*
X81071309Y-76985714D01*
X80928452Y-76985714D01*
X80737976Y-76938095D01*
X80642738Y-76890476D01*
X80547500Y-76795238D01*
X80499880Y-76652380D01*
X80499880Y-76557142D01*
X80547500Y-76414285D01*
X80595119Y-76366666D01*
X80499880Y-76033333D02*
X80499880Y-75414285D01*
X80880833Y-75747619D01*
X80880833Y-75604761D01*
X80928452Y-75509523D01*
X80976071Y-75461904D01*
X81071309Y-75414285D01*
X81309404Y-75414285D01*
X81404642Y-75461904D01*
X81452261Y-75509523D01*
X81499880Y-75604761D01*
X81499880Y-75890476D01*
X81452261Y-75985714D01*
X81404642Y-76033333D01*
%TO.C,C7*%
X82383333Y-49252142D02*
X82335714Y-49299761D01*
X82192857Y-49347380D01*
X82097619Y-49347380D01*
X81954761Y-49299761D01*
X81859523Y-49204523D01*
X81811904Y-49109285D01*
X81764285Y-48918809D01*
X81764285Y-48775952D01*
X81811904Y-48585476D01*
X81859523Y-48490238D01*
X81954761Y-48395000D01*
X82097619Y-48347380D01*
X82192857Y-48347380D01*
X82335714Y-48395000D01*
X82383333Y-48442619D01*
X82716666Y-48347380D02*
X83383333Y-48347380D01*
X82954761Y-49347380D01*
%TO.C,J1*%
X90471666Y-84542380D02*
X90471666Y-85256666D01*
X90424047Y-85399523D01*
X90328809Y-85494761D01*
X90185952Y-85542380D01*
X90090714Y-85542380D01*
X91471666Y-85542380D02*
X90900238Y-85542380D01*
X91185952Y-85542380D02*
X91185952Y-84542380D01*
X91090714Y-84685238D01*
X90995476Y-84780476D01*
X90900238Y-84828095D01*
%TO.C,R2*%
X99528333Y-69032380D02*
X99195000Y-68556190D01*
X98956904Y-69032380D02*
X98956904Y-68032380D01*
X99337857Y-68032380D01*
X99433095Y-68080000D01*
X99480714Y-68127619D01*
X99528333Y-68222857D01*
X99528333Y-68365714D01*
X99480714Y-68460952D01*
X99433095Y-68508571D01*
X99337857Y-68556190D01*
X98956904Y-68556190D01*
X99909285Y-68127619D02*
X99956904Y-68080000D01*
X100052142Y-68032380D01*
X100290238Y-68032380D01*
X100385476Y-68080000D01*
X100433095Y-68127619D01*
X100480714Y-68222857D01*
X100480714Y-68318095D01*
X100433095Y-68460952D01*
X99861666Y-69032380D01*
X100480714Y-69032380D01*
%TO.C,C1*%
X81637142Y-78906666D02*
X81684761Y-78954285D01*
X81732380Y-79097142D01*
X81732380Y-79192380D01*
X81684761Y-79335238D01*
X81589523Y-79430476D01*
X81494285Y-79478095D01*
X81303809Y-79525714D01*
X81160952Y-79525714D01*
X80970476Y-79478095D01*
X80875238Y-79430476D01*
X80780000Y-79335238D01*
X80732380Y-79192380D01*
X80732380Y-79097142D01*
X80780000Y-78954285D01*
X80827619Y-78906666D01*
X81732380Y-77954285D02*
X81732380Y-78525714D01*
X81732380Y-78240000D02*
X80732380Y-78240000D01*
X80875238Y-78335238D01*
X80970476Y-78430476D01*
X81018095Y-78525714D01*
%TO.C,D3*%
X92606904Y-72207380D02*
X92606904Y-71207380D01*
X92845000Y-71207380D01*
X92987857Y-71255000D01*
X93083095Y-71350238D01*
X93130714Y-71445476D01*
X93178333Y-71635952D01*
X93178333Y-71778809D01*
X93130714Y-71969285D01*
X93083095Y-72064523D01*
X92987857Y-72159761D01*
X92845000Y-72207380D01*
X92606904Y-72207380D01*
X93511666Y-71207380D02*
X94130714Y-71207380D01*
X93797380Y-71588333D01*
X93940238Y-71588333D01*
X94035476Y-71635952D01*
X94083095Y-71683571D01*
X94130714Y-71778809D01*
X94130714Y-72016904D01*
X94083095Y-72112142D01*
X94035476Y-72159761D01*
X93940238Y-72207380D01*
X93654523Y-72207380D01*
X93559285Y-72159761D01*
X93511666Y-72112142D01*
X91868809Y-74762380D02*
X92487857Y-74762380D01*
X92154523Y-75143333D01*
X92297380Y-75143333D01*
X92392619Y-75190952D01*
X92440238Y-75238571D01*
X92487857Y-75333809D01*
X92487857Y-75571904D01*
X92440238Y-75667142D01*
X92392619Y-75714761D01*
X92297380Y-75762380D01*
X92011666Y-75762380D01*
X91916428Y-75714761D01*
X91868809Y-75667142D01*
X92916428Y-75667142D02*
X92964047Y-75714761D01*
X92916428Y-75762380D01*
X92868809Y-75714761D01*
X92916428Y-75667142D01*
X92916428Y-75762380D01*
X93297380Y-74762380D02*
X93916428Y-74762380D01*
X93583095Y-75143333D01*
X93725952Y-75143333D01*
X93821190Y-75190952D01*
X93868809Y-75238571D01*
X93916428Y-75333809D01*
X93916428Y-75571904D01*
X93868809Y-75667142D01*
X93821190Y-75714761D01*
X93725952Y-75762380D01*
X93440238Y-75762380D01*
X93345000Y-75714761D01*
X93297380Y-75667142D01*
X94202142Y-74762380D02*
X94535476Y-75762380D01*
X94868809Y-74762380D01*
%TO.C,R4*%
X107132380Y-74461666D02*
X106656190Y-74795000D01*
X107132380Y-75033095D02*
X106132380Y-75033095D01*
X106132380Y-74652142D01*
X106180000Y-74556904D01*
X106227619Y-74509285D01*
X106322857Y-74461666D01*
X106465714Y-74461666D01*
X106560952Y-74509285D01*
X106608571Y-74556904D01*
X106656190Y-74652142D01*
X106656190Y-75033095D01*
X106465714Y-73604523D02*
X107132380Y-73604523D01*
X106084761Y-73842619D02*
X106799047Y-74080714D01*
X106799047Y-73461666D01*
%TO.C,C2*%
X105767142Y-70651666D02*
X105814761Y-70699285D01*
X105862380Y-70842142D01*
X105862380Y-70937380D01*
X105814761Y-71080238D01*
X105719523Y-71175476D01*
X105624285Y-71223095D01*
X105433809Y-71270714D01*
X105290952Y-71270714D01*
X105100476Y-71223095D01*
X105005238Y-71175476D01*
X104910000Y-71080238D01*
X104862380Y-70937380D01*
X104862380Y-70842142D01*
X104910000Y-70699285D01*
X104957619Y-70651666D01*
X104957619Y-70270714D02*
X104910000Y-70223095D01*
X104862380Y-70127857D01*
X104862380Y-69889761D01*
X104910000Y-69794523D01*
X104957619Y-69746904D01*
X105052857Y-69699285D01*
X105148095Y-69699285D01*
X105290952Y-69746904D01*
X105862380Y-70318333D01*
X105862380Y-69699285D01*
%TO.C,C8*%
X95607142Y-78906666D02*
X95654761Y-78954285D01*
X95702380Y-79097142D01*
X95702380Y-79192380D01*
X95654761Y-79335238D01*
X95559523Y-79430476D01*
X95464285Y-79478095D01*
X95273809Y-79525714D01*
X95130952Y-79525714D01*
X94940476Y-79478095D01*
X94845238Y-79430476D01*
X94750000Y-79335238D01*
X94702380Y-79192380D01*
X94702380Y-79097142D01*
X94750000Y-78954285D01*
X94797619Y-78906666D01*
X95130952Y-78335238D02*
X95083333Y-78430476D01*
X95035714Y-78478095D01*
X94940476Y-78525714D01*
X94892857Y-78525714D01*
X94797619Y-78478095D01*
X94750000Y-78430476D01*
X94702380Y-78335238D01*
X94702380Y-78144761D01*
X94750000Y-78049523D01*
X94797619Y-78001904D01*
X94892857Y-77954285D01*
X94940476Y-77954285D01*
X95035714Y-78001904D01*
X95083333Y-78049523D01*
X95130952Y-78144761D01*
X95130952Y-78335238D01*
X95178571Y-78430476D01*
X95226190Y-78478095D01*
X95321428Y-78525714D01*
X95511904Y-78525714D01*
X95607142Y-78478095D01*
X95654761Y-78430476D01*
X95702380Y-78335238D01*
X95702380Y-78144761D01*
X95654761Y-78049523D01*
X95607142Y-78001904D01*
X95511904Y-77954285D01*
X95321428Y-77954285D01*
X95226190Y-78001904D01*
X95178571Y-78049523D01*
X95130952Y-78144761D01*
%TO.C,U2*%
X80732380Y-68071904D02*
X81541904Y-68071904D01*
X81637142Y-68024285D01*
X81684761Y-67976666D01*
X81732380Y-67881428D01*
X81732380Y-67690952D01*
X81684761Y-67595714D01*
X81637142Y-67548095D01*
X81541904Y-67500476D01*
X80732380Y-67500476D01*
X80827619Y-67071904D02*
X80780000Y-67024285D01*
X80732380Y-66929047D01*
X80732380Y-66690952D01*
X80780000Y-66595714D01*
X80827619Y-66548095D01*
X80922857Y-66500476D01*
X81018095Y-66500476D01*
X81160952Y-66548095D01*
X81732380Y-67119523D01*
X81732380Y-66500476D01*
%TO.C,J4*%
X107827380Y-67206666D02*
X108541666Y-67206666D01*
X108684523Y-67254285D01*
X108779761Y-67349523D01*
X108827380Y-67492380D01*
X108827380Y-67587619D01*
X107827380Y-66873333D02*
X107827380Y-66301904D01*
X108827380Y-66587619D02*
X107827380Y-66587619D01*
X108541666Y-66016190D02*
X108541666Y-65540000D01*
X108827380Y-66111428D02*
X107827380Y-65778095D01*
X108827380Y-65444761D01*
X107875000Y-64587619D02*
X107827380Y-64682857D01*
X107827380Y-64825714D01*
X107875000Y-64968571D01*
X107970238Y-65063809D01*
X108065476Y-65111428D01*
X108255952Y-65159047D01*
X108398809Y-65159047D01*
X108589285Y-65111428D01*
X108684523Y-65063809D01*
X108779761Y-64968571D01*
X108827380Y-64825714D01*
X108827380Y-64730476D01*
X108779761Y-64587619D01*
X108732142Y-64540000D01*
X108398809Y-64540000D01*
X108398809Y-64730476D01*
%TO.C,R6*%
X93178333Y-68652380D02*
X92845000Y-68176190D01*
X92606904Y-68652380D02*
X92606904Y-67652380D01*
X92987857Y-67652380D01*
X93083095Y-67700000D01*
X93130714Y-67747619D01*
X93178333Y-67842857D01*
X93178333Y-67985714D01*
X93130714Y-68080952D01*
X93083095Y-68128571D01*
X92987857Y-68176190D01*
X92606904Y-68176190D01*
X94035476Y-67652380D02*
X93845000Y-67652380D01*
X93749761Y-67700000D01*
X93702142Y-67747619D01*
X93606904Y-67890476D01*
X93559285Y-68080952D01*
X93559285Y-68461904D01*
X93606904Y-68557142D01*
X93654523Y-68604761D01*
X93749761Y-68652380D01*
X93940238Y-68652380D01*
X94035476Y-68604761D01*
X94083095Y-68557142D01*
X94130714Y-68461904D01*
X94130714Y-68223809D01*
X94083095Y-68128571D01*
X94035476Y-68080952D01*
X93940238Y-68033333D01*
X93749761Y-68033333D01*
X93654523Y-68080952D01*
X93606904Y-68128571D01*
X93559285Y-68223809D01*
%TO.C,J5*%
X81573809Y-62482380D02*
X81573809Y-61482380D01*
X82002380Y-61577619D02*
X82050000Y-61530000D01*
X82145238Y-61482380D01*
X82383333Y-61482380D01*
X82478571Y-61530000D01*
X82526190Y-61577619D01*
X82573809Y-61672857D01*
X82573809Y-61768095D01*
X82526190Y-61910952D01*
X81954761Y-62482380D01*
X82573809Y-62482380D01*
X83573809Y-62387142D02*
X83526190Y-62434761D01*
X83383333Y-62482380D01*
X83288095Y-62482380D01*
X83145238Y-62434761D01*
X83050000Y-62339523D01*
X83002380Y-62244285D01*
X82954761Y-62053809D01*
X82954761Y-61910952D01*
X83002380Y-61720476D01*
X83050000Y-61625238D01*
X83145238Y-61530000D01*
X83288095Y-61482380D01*
X83383333Y-61482380D01*
X83526190Y-61530000D01*
X83573809Y-61577619D01*
D11*
%TO.C,J2*%
X102412800Y-84654758D02*
X102412800Y-78888253D01*
X109677200Y-87212040D02*
X109677200Y-89560400D01*
X109508303Y-76809600D02*
X109677200Y-76809600D01*
X109677200Y-78888253D02*
X109677200Y-84654758D01*
X103808543Y-76809600D02*
X104763245Y-76809600D01*
X102412800Y-76978847D02*
X102412800Y-76809600D01*
X107326755Y-76809600D02*
X108281457Y-76809600D01*
X109677200Y-89560400D02*
X109169200Y-89560400D01*
X109677200Y-76809600D02*
X109677200Y-76978847D01*
X102412800Y-76809600D02*
X102581697Y-76809600D01*
X102412800Y-89560400D02*
X102412800Y-87212040D01*
X102920800Y-89560400D02*
X102412800Y-89560400D01*
X102920800Y-92049600D02*
X102920800Y-89560400D01*
X109169200Y-92049600D02*
X102920800Y-92049600D01*
X109169200Y-89560400D02*
X109169200Y-92049600D01*
%TO.C,SW1*%
X94450000Y-89135000D02*
X93140000Y-89135000D01*
X95765000Y-83915000D02*
X95765000Y-85121667D01*
X94925000Y-83915000D02*
X94925000Y-85121667D01*
X94685000Y-83915000D02*
X94685000Y-85121667D01*
X95885000Y-85121667D02*
X94615000Y-85121667D01*
X97360000Y-82315000D02*
X97360000Y-89135000D01*
X95045000Y-83915000D02*
X95045000Y-85121667D01*
X97600000Y-82075000D02*
X96217000Y-82075000D01*
X97360000Y-89135000D02*
X96050000Y-89135000D01*
X95525000Y-83915000D02*
X95525000Y-85121667D01*
X95285000Y-83915000D02*
X95285000Y-85121667D01*
X94615000Y-83915000D02*
X94615000Y-87535000D01*
X95645000Y-83915000D02*
X95645000Y-85121667D01*
X93140000Y-82315000D02*
X93140000Y-89135000D01*
X97600000Y-82075000D02*
X97600000Y-83458000D01*
X95165000Y-83915000D02*
X95165000Y-85121667D01*
X95885000Y-83915000D02*
X94615000Y-83915000D01*
X94450000Y-82315000D02*
X93140000Y-82315000D01*
X95885000Y-87535000D02*
X95885000Y-83915000D01*
X94805000Y-83915000D02*
X94805000Y-85121667D01*
X94615000Y-87535000D02*
X95885000Y-87535000D01*
X95405000Y-83915000D02*
X95405000Y-85121667D01*
X97360000Y-82315000D02*
X96050000Y-82315000D01*
%TO.C,R7*%
X88672936Y-82450000D02*
X89127064Y-82450000D01*
X88672936Y-83920000D02*
X89127064Y-83920000D01*
%TO.C,D1*%
X81750000Y-84055000D02*
X81750000Y-84855000D01*
X83050000Y-84055000D02*
X81750000Y-84055000D01*
X83050000Y-84855000D02*
X81750000Y-84855000D01*
%TO.C,D4*%
X90760000Y-79685000D02*
X87900000Y-79685000D01*
X87900000Y-81605000D02*
X90760000Y-81605000D01*
X90760000Y-81605000D02*
X90760000Y-79685000D01*
%TO.C,D2*%
X86050000Y-80690000D02*
X84130000Y-80690000D01*
X84130000Y-80690000D02*
X84130000Y-83550000D01*
X86050000Y-83550000D02*
X86050000Y-80690000D01*
%TO.C,C6*%
X83285000Y-41536252D02*
X83285000Y-41013748D01*
X81815000Y-41536252D02*
X81815000Y-41013748D01*
%TO.C,R3*%
X103097064Y-73760000D02*
X102642936Y-73760000D01*
X103097064Y-72290000D02*
X102642936Y-72290000D01*
%TO.C,R1*%
X90127064Y-76935000D02*
X89672936Y-76935000D01*
X90127064Y-75465000D02*
X89672936Y-75465000D01*
%TO.C,C4*%
X108958748Y-70385000D02*
X109481252Y-70385000D01*
X108958748Y-71855000D02*
X109481252Y-71855000D01*
%TO.C,J3*%
X111185000Y-46345000D02*
X111185000Y-38665000D01*
X111185000Y-38665000D02*
X108525000Y-38665000D01*
X111185000Y-47615000D02*
X111185000Y-48945000D01*
X108525000Y-46345000D02*
X108525000Y-38665000D01*
X111185000Y-48945000D02*
X109855000Y-48945000D01*
X111185000Y-46345000D02*
X108525000Y-46345000D01*
%TO.C,R5*%
X97382064Y-75465000D02*
X96927936Y-75465000D01*
X97382064Y-76935000D02*
X96927936Y-76935000D01*
%TO.C,C5*%
X97255000Y-70858748D02*
X97255000Y-71381252D01*
X95785000Y-70858748D02*
X95785000Y-71381252D01*
%TO.C,C3*%
X83558748Y-76935000D02*
X84081252Y-76935000D01*
X83558748Y-75465000D02*
X84081252Y-75465000D01*
%TO.C,C7*%
X81815000Y-46093748D02*
X81815000Y-46616252D01*
X83285000Y-46093748D02*
X83285000Y-46616252D01*
%TO.C,J1*%
X85685000Y-85925000D02*
X85235000Y-85925000D01*
X83235000Y-90955000D02*
X83235000Y-90555000D01*
X90755000Y-88585000D02*
X90755000Y-86605000D01*
X90755000Y-90555000D02*
X90755000Y-90955000D01*
X83235000Y-88585000D02*
X83235000Y-86605000D01*
X83235000Y-86605000D02*
X83655000Y-86605000D01*
X85235000Y-86375000D02*
X85235000Y-85925000D01*
X90755000Y-86605000D02*
X90335000Y-86605000D01*
%TO.C,R2*%
X100430000Y-70892936D02*
X100430000Y-71347064D01*
X98960000Y-70892936D02*
X98960000Y-71347064D01*
%TO.C,C1*%
X83558748Y-78005000D02*
X84081252Y-78005000D01*
X83558748Y-79475000D02*
X84081252Y-79475000D01*
%TO.C,D3*%
X94345000Y-72700000D02*
X91485000Y-72700000D01*
X91485000Y-72700000D02*
X91485000Y-74620000D01*
X91485000Y-74620000D02*
X94345000Y-74620000D01*
%TO.C,R4*%
X109447064Y-73560000D02*
X108992936Y-73560000D01*
X109447064Y-75030000D02*
X108992936Y-75030000D01*
%TO.C,C2*%
X102608748Y-69750000D02*
X103131252Y-69750000D01*
X102608748Y-71220000D02*
X103131252Y-71220000D01*
%TO.C,C8*%
X92448748Y-78005000D02*
X92971252Y-78005000D01*
X92448748Y-79475000D02*
X92971252Y-79475000D01*
%TO.C,U2*%
X87865000Y-68575000D02*
X86605000Y-68575000D01*
X87865000Y-72335000D02*
X87865000Y-68575000D01*
X81045000Y-68575000D02*
X82305000Y-68575000D01*
X81045000Y-74585000D02*
X81045000Y-68575000D01*
%TO.C,J4*%
X94615000Y-64710000D02*
X107375000Y-64710000D01*
X94615000Y-67370000D02*
X107375000Y-67370000D01*
X107375000Y-67370000D02*
X107375000Y-64710000D01*
X94615000Y-67370000D02*
X94615000Y-64710000D01*
X92015000Y-67370000D02*
X92015000Y-66040000D01*
X93345000Y-67370000D02*
X92015000Y-67370000D01*
%TO.C,R6*%
X93117936Y-70585000D02*
X93572064Y-70585000D01*
X93117936Y-69115000D02*
X93572064Y-69115000D01*
%TO.C,J5*%
X81220000Y-53350000D02*
X83880000Y-53350000D01*
X81220000Y-52080000D02*
X81220000Y-50750000D01*
X83880000Y-53350000D02*
X83880000Y-61030000D01*
X81220000Y-53350000D02*
X81220000Y-61030000D01*
X81220000Y-61030000D02*
X83880000Y-61030000D01*
X81220000Y-50750000D02*
X82550000Y-50750000D01*
%TD*%
M02*
