M48
; DRILL file {KiCad (6.0.0)} date Sun Feb 27 19:02:34 2022
; FORMAT={-:-/ absolute / inch / decimal}
; #@! TF.CreationDate,2022-02-27T19:02:34-06:00
; #@! TF.GenerationSoftware,Kicad,Pcbnew,(6.0.0)
; #@! TF.FileFunction,Plated,1,2,PTH
FMAT,2
INCH
; #@! TA.AperFunction,Plated,PTH,ViaDrill
T1C0.0157
; #@! TA.AperFunction,Plated,PTH,ComponentDrill
T2C0.0197
; #@! TA.AperFunction,Plated,PTH,ComponentDrill
T3C0.0217
; #@! TA.AperFunction,Plated,PTH,ComponentDrill
T4C0.0394
%
G90
G05
T1
X3.25Y-1.725
X3.25Y-3.225
X3.6Y-2.825
X3.7697Y-2.8947
X3.775Y-1.775
X3.775Y-1.825
X3.825Y-1.775
X3.825Y-1.825
X3.85Y-3.125
X3.8644Y-3.0448
X3.875Y-2.7
X3.875Y-3.55
X3.9206Y-2.0456
X3.9206Y-2.0956
X3.925Y-2.8394
X3.95Y-2.2
X3.95Y-3.55
X3.9673Y-2.6673
X3.975Y-1.875
X3.975Y-2.125
X3.975Y-2.95
X4.15Y-2.825
X4.3Y-2.125
X4.3Y-2.225
T4
X3.25Y-2.0504
X3.25Y-2.1504
X3.25Y-2.2504
X3.25Y-2.3504
X3.675Y-2.6
X3.775Y-2.6
X3.875Y-2.6
X3.975Y-2.6
X4.0451Y-3.3832
X4.0628Y-3.0682
X4.075Y-2.6
X4.175Y-2.6
X4.175Y-3.0368
X4.2872Y-3.0682
X4.3049Y-3.3832
X4.325Y-1.5746
X4.325Y-1.6746
X4.325Y-1.7746
X4.325Y-1.8746
T2
G00X3.2872Y-3.5134
M15
G01X3.2872Y-3.539
M16
G05
G00X3.5628Y-3.5134
M15
G01X3.5628Y-3.539
M16
G05
T3
G00X3.3207Y-3.4199
M15
G01X3.3325Y-3.4199
M16
G05
G00X3.5175Y-3.4199
M15
G01X3.5293Y-3.4199
M16
G05
T0
M30
